<svg xmlns="http://www.w3.org/2000/svg" width="31" height="30" fill="none" viewBox="0 0 31 30">
  <path fill="#fff" d="M4.114 20h2.532v7.484a1.266 1.266 0 11-2.532 0V20zM14.24 16.25h2.532v11.234a1.266 1.266 0 11-2.532 0V16.25zM4.114 2.516a1.266 1.266 0 112.532 0V13.75H4.114V2.516zM24.367 20H26.9v7.484a1.266 1.266 0 11-2.532 0V20zM24.367 2.516a1.266 1.266 0 112.532 0V13.75h-2.532V2.516zM14.24 2.516a1.266 1.266 0 112.532 0V10h-2.531V2.516z"/>
  <rect width="10.127" height="6.25" x="20.57" y="16.25" fill="#fff" rx="2"/>
  <rect width="10.127" height="6.25" x="10.443" y="7.5" fill="#fff" rx="2"/>
  <rect width="10.127" height="6.25" x=".316" y="16.25" fill="#fff" rx="2"/>
</svg>
