<svg xmlns="http://www.w3.org/2000/svg" width="32" height="30" fill="none" viewBox="0 0 32 30">
  <path fill="#fff" d="M15.918 3.595a1 1 0 011.572.82v21.17a1 1 0 01-1.572.82L8.522 21.25H4.116a2 2 0 01-2-2v-8.5a2 2 0 012-2h4.406l7.396-5.155z"/>
  <path stroke="#fff" stroke-linecap="round" stroke-linejoin="round" stroke-width="2" d="M21.325 21.132c1.59-1.58 2.57-3.744 2.57-6.132 0-2.398-.989-4.571-2.59-6.152M24.892 5.277c2.55 2.489 4.128 5.926 4.128 9.723 0 3.797-1.578 7.235-4.128 9.723"/>
</svg>
